<svg xmlns="http://www.w3.org/2000/svg" width="163.839" height="163.839" fill-rule="evenodd" clip-rule="evenodd" image-rendering="optimizeQuality" shape-rendering="geometricPrecision" text-rendering="geometricPrecision" viewBox="0 0 1707 1707" id="administrator"><path fill="#2b1330" d="M318 1079c-84,0 -152,-68 -152,-152 0,-84 68,-153 152,-153 84,0 153,68 153,153 -1,84 -69,152 -153,152zm363 -599c1,-10 2,-21 5,-32 20,-98 78,-172 168,-211 5,-3 11,-3 16,0 5,2 9,6 11,11 47,131 155,109 315,61 54,-16 106,-32 149,-33 18,-1 34,1 48,6 -17,-38 -41,-70 -67,-95 -124,-125 -333,-168 -403,-131 -17,10 -23,22 -19,42 1,5 0,11 -4,16 -3,4 -8,7 -14,8 -106,8 -177,44 -211,106 -41,76 -20,179 6,252zm771 -142l0 2c1,3 2,6 1,9 10,72 -5,149 -46,229 44,46 62,91 54,133 -10,57 -66,91 -89,103 -25,123 -78,184 -108,210 -5,4 -9,13 -12,24 0,3 -1,6 -2,8 -5,25 -2,47 2,52l10 6c52,37 59,42 124,63 317,103 320,276 320,289l0 217c0,12 -9,20 -20,20l-712 0 -1 0 -574 0c-11,0 -20,-9 -20,-20 0,0 0,0 0,0l0 -217c0,-12 2,-170 277,-273 2,-1 5,-2 8,-3 1,-1 2,-2 3,-2 1,0 3,-1 4,-1 11,-4 20,-7 29,-11 28,-10 46,-16 66,-26 0,-1 1,-1 2,-1 17,-9 36,-21 65,-41 4,-4 8,-29 1,-57l0 0 -1 0c-3,-13 -9,-23 -14,-28 -30,-26 -81,-87 -107,-209 -23,-12 -78,-45 -89,-103 -8,-42 10,-87 54,-133 -25,-52 -108,-238 -37,-369 38,-70 113,-112 222,-125 1,-27 15,-48 41,-63 45,-24 124,-23 211,1 94,27 179,75 240,137 53,53 86,113 98,179zm-38 13c-24,-56 -95,-38 -207,-4 -69,21 -140,42 -205,38 -70,-4 -121,-38 -150,-103 -68,36 -110,93 -127,173 -13,66 -3,122 -3,123 2,8 -2,15 -8,20 -40,39 -57,74 -51,106 9,50 74,77 75,78 6,2 10,8 12,14 22,118 69,174 95,197 12,10 19,24 24,37 55,16 114,24 176,24 60,0 117,-7 170,-22 5,-13 12,-28 24,-38 26,-23 74,-79 96,-198 2,-6 6,-12 12,-14 1,-1 66,-28 75,-78 6,-32 -12,-68 -53,-108 -7,-6 -8,-16 -4,-24 48,-86 58,-160 49,-221zm-537 723c2,26 -3,54 -22,67 -8,6 -17,11 -24,16 16,3 33,5 51,8 2,-1 3,0 5,0 49,5 101,8 156,8 75,0 148,-5 211,-16 -5,-3 -10,-6 -15,-10l-10 -7c-17,-12 -23,-38 -21,-65 -52,12 -107,19 -163,19 -58,0 -114,-7 -168,-20zm-99 114c-19,10 -38,16 -64,26l-13 4 119 293 193 -160 -140 -147c-34,-4 -66,-10 -95,-16zm-115 44c-127,49 -187,110 -214,152 -30,46 -30,81 -30,81 0,0 0,0 0,0l0 198 532 0 -15 -142 -25 -33 -87 71c-2,4 -7,5 -12,5 -1,0 -3,0 -5,0 -6,-2 -11,-6 -13,-12l-131 -320zm328 431l103 0 14 -130 -130 0 13 130zm143 0l532 0 0 -198c0,0 0,0 0,0 0,-1 0,-39 -35,-88 -29,-41 -89,-98 -210,-145l-130 320c-3,6 -8,10 -14,12 -1,0 -3,0 -4,0 -5,0 -9,-1 -13,-4l-86 -72 -25 33 -15 142zm250 -445c-3,-1 -7,-2 -10,-3 -33,-11 -53,-18 -70,-26 -28,6 -59,11 -92,15l-141 148 110 91c1,0 1,1 2,1 1,1 2,2 3,3l78 65 120 -294zm-131 -110l0 0 0 0zm-210 105c-38,0 -74,-1 -109,-4l108 115 109 -114c-35,2 -71,3 -108,3zm-1 166l-101 83 24 31 155 0 23 -30 -101 -84zm-657 -128l-134 0c-11,0 -20,-9 -20,-20l0 -69c-27,-10 -52,-25 -73,-43l-60 35c-10,6 -22,2 -27,-7l-67 -116c-3,-4 -4,-10 -2,-15 1,-5 4,-9 9,-12l60 -35c-2,-14 -4,-28 -4,-42 0,-14 2,-28 4,-42l-60 -35c-5,-3 -8,-7 -9,-12 -2,-5 -1,-11 2,-16l67 -115c5,-10 17,-13 27,-7l60 34c22,-18 47,-32 73,-42l0 -69c0,-11 9,-20 20,-20l134 0c11,0 20,9 20,20l0 69c26,10 51,24 73,42l60 -34c9,-6 21,-3 27,7l67 115c3,5 3,10 2,16 -1,5 -5,9 -9,12l-60 34c2,14 3,29 3,43 0,14 -1,28 -3,42l60 35c4,2 8,7 9,12 1,5 1,10 -2,15l-67 115c-6,10 -18,13 -27,8l-60 -35c-22,18 -47,33 -73,42l0 70c0,11 -9,20 -20,20zm-114 -40l94 0 0 -64c0,-8 5,-16 14,-19 31,-9 60,-26 83,-48 6,-6 16,-7 24,-2l55 32 47 -81 -55 -32c-8,-4 -12,-13 -10,-22 4,-16 6,-32 6,-48 0,-16 -2,-32 -6,-48 -2,-9 2,-17 10,-22l55 -32 -47 -81 -55 32c-8,4 -18,3 -24,-3 -24,-22 -52,-38 -83,-48 -8,-2 -14,-10 -14,-19l0 -63 -94 0 0 63c0,9 -6,17 -14,19 -31,10 -60,26 -83,48 -6,6 -16,7 -24,3l-55 -32 -47 81 55 32c8,4 11,13 9,22 -3,16 -5,32 -5,48 0,16 2,32 5,48 2,9 -2,17 -9,22l-55 32 47 81 55 -32c8,-5 17,-4 24,2 23,22 52,39 83,48 8,3 14,11 14,19l0 64zm47 -397c-62,0 -113,51 -113,113 0,62 51,113 113,113 62,0 113,-51 113,-113 -1,-62 -51,-113 -113,-113z"></path><polygon fill="#fd003a" points="1042 1379 941 1462 965 1493 1120 1493 1143 1463"></polygon><path fill="#e0e0de" d="M1071 1352l110 91c1 0 1 1 2 1 1 1 2 2 3 3l78 65 120-294-10-3c-33-11-53-18-70-26-28 6-59 11-92 15l-141 148zM820 1511l193-160-140-147c-34-4-66-10-95-16-19 10-38 16-64 26l-13 4 119 293z"></path><path fill="#feb784" d="M934 1209l108 115 109-114c-35 2-71 3-108 3-38 0-74-1-109-4zM1043 1173c75 0 148-5 211-16l-15-10-10-7c-17-12-23-38-21-65-52 12-107 19-163 19-58 0-114-7-168-20 2 26-3 54-22 67-8 6-17 11-24 16 16 3 33 5 51 8 2-1 3 0 5 0 49 5 101 8 156 8z"></path><path fill="#fec093" d="M1045 1054c60,0 117,-7 170,-22 5,-13 12,-28 24,-38 26,-23 74,-79 96,-198 2,-6 6,-12 12,-14 1,-1 66,-28 75,-78 6,-32 -12,-68 -53,-108 -7,-6 -8,-16 -4,-24 48,-86 58,-160 49,-221 -24,-56 -95,-38 -207,-4 -69,21 -140,42 -205,38 -70,-4 -121,-38 -150,-103 -68,36 -110,93 -127,173 -13,66 -3,122 -3,123 2,8 -2,15 -8,20 -40,39 -57,74 -51,106 9,50 74,77 75,78 6,2 10,8 12,14 22,118 69,174 95,197 12,10 19,24 24,37 55,16 114,24 176,24z"></path><path fill="#b3b3b3" d="M523 975c4,-16 6,-32 6,-48 0,-16 -2,-32 -6,-48 -2,-9 2,-17 10,-22l55 -32 -47 -81 -55 32c-8,4 -18,3 -24,-3 -24,-22 -52,-38 -83,-48 -8,-2 -14,-10 -14,-19l0 -63 -94 0 0 63c0,9 -6,17 -14,19 -31,10 -60,26 -83,48 -6,6 -16,7 -24,3l-55 -32 -47 81 55 32c8,4 11,13 9,22 -3,16 -5,32 -5,48 0,16 2,32 5,48 2,9 -2,17 -9,22l-55 32 47 81 55 -32c8,-5 17,-4 24,2 23,22 52,39 83,48 8,3 14,11 14,19l0 64 94 0 0 -64c0,-8 5,-16 14,-19 31,-9 60,-26 83,-48 6,-6 16,-7 24,-2l55 32 47 -81 -55 -32c-8,-4 -12,-13 -10,-22zm-52 -48c-1,84 -69,152 -153,152 -84,0 -152,-68 -152,-152 0,-84 68,-153 152,-153 84,0 153,68 153,153z"></path><path fill="#6b809b" d="M663 1232c-127,49 -187,110 -214,152 -30,46 -30,81 -30,81l0 0 0 198 532 0 -15 -142 -25 -33 -87 71c-2,4 -7,5 -12,5 -1,0 -3,0 -5,0 -6,-2 -11,-6 -13,-12l-131 -320z"></path><polygon fill="#fd003a" points="978 1533 991 1663 1094 1663 1108 1533"></polygon><path fill="#4d5e78" d="M1149 1521l-15 142 532 0 0 -198 0 0c0,-1 0,-39 -35,-88 -29,-41 -89,-98 -210,-145l-130 320c-3,6 -8,10 -14,12 -1,0 -3,0 -4,0 -5,0 -9,-1 -13,-4l-86 -72 -25 33z"></path><path fill="#7a432a" d="M881 248c47,131 155,109 315,61 54,-16 106,-32 149,-33 18,-1 34,1 48,6 -17,-38 -41,-70 -67,-95 -124,-125 -333,-168 -403,-131 -17,10 -23,22 -19,42 1,5 0,11 -4,16 -3,4 -8,7 -14,8 -106,8 -177,44 -211,106 -41,76 -20,179 6,252 1,-10 2,-21 5,-32 20,-98 78,-172 168,-211 5,-3 11,-3 16,0 5,2 9,6 11,11z"></path></svg>