<svg xmlns="http://www.w3.org/2000/svg" enable-background="new 0 0 93 93" viewBox="0 0 93 93" id="manager"><path fill="#EAE6FC" d="M9.75369,84.9774h72.89143c1.72277-3.06646,3.17076-6.22093,4.30347-9.22032
					c2.87346-7.60865,4.08412-16.38556,0.58413-23.7271c-2.08743-4.37844-6.12844-8.11245-10.95717-8.57227
					c-3.47242-0.33063-6.85078,1.01527-10.19435,2.00902c-3.34351,0.9938-7.11974,1.60853-10.18853-0.0495
					c-4.89987-2.64742-5.51779-9.48202-9.20851-13.65286c-2.757-3.11561-7.05117-4.47541-11.20444-4.71739
					c-10.71589-0.62444-21.23226,5.62825-26.91088,14.73724c-5.67868,9.10893-6.7968,20.63533-4.26531,31.06666
					C5.64358,77.1366,7.31801,81.32059,9.75369,84.9774z"></path><path fill="#C3F7FC" d="M76.72029,84.9774H16.2791c-1.9549,0-3.4392-1.77709-3.08395-3.70047l3.1258-17.37349
							c0.38664-2.13253,1.83955-3.90961,3.84677-4.71448l15.15738-6.0734c7.45313,2.96872,14.89605,2.96872,22.34918,0
							l15.15738,6.0734c2.00722,0.80487,3.46013,2.58195,3.84677,4.71448l3.1258,17.37349
							C80.15948,83.20031,78.67519,84.9774,76.72029,84.9774z"></path><polygon fill="#FFF" points="35.322 53.119 40.946 62.198 46.5 55.338 37.822 50.095"></polygon><polygon fill="#FFF" points="57.677 53.119 52.054 62.198 46.5 55.338 55.177 50.095"></polygon><polygon fill="#FF2E57" points="42.374 84.974 45.093 60.306 43.675 58.841 46.5 55.344 49.325 58.841 47.907 60.306 50.626 84.974"></polygon><path fill="#FFF" d="M61.13007,32.41074V35.895c0,0.51136-0.35973,0.95772-0.85805,1.0704
						c-0.48965,0.11268-0.94037,0.34237-1.31311,0.65872c-0.37697,0.32068-0.67597,0.72805-0.86673,1.19609l-0.09533,0.23835
						c-0.37697,0.94473-0.28598,2.01516,0.25572,2.87754l0.20801,0.33367c0.13871,0.22536,0.104,0.52004-0.08231,0.70639
						l-3.06392,3.0509c-0.18632,0.18634-0.47674,0.22099-0.7021,0.078c-0.56763-0.35536-1.37807-0.54604-2.15814-0.54604
						c-0.48098,0-0.95338,0.07367-1.33903,0.22967l-0.06073,0.02169c-0.85372,0.34235-1.49075,1.07907-1.70309,1.9718
						l-0.12569,0.53737c-0.06496,0.27736-0.31201,0.46804-0.59365,0.46804h-4.26c-0.28609,0-0.53303-0.19502-0.59376-0.47238
						c-0.12992-0.56771-0.38131-1.08775-0.73236-1.5341c-0.35105-0.44638-0.79732-0.81907-1.31744-1.07476l-0.02158-0.01299
						c-1.00109-0.41604-2.14524-0.32069-3.0509,0.25136c-0.15606,0.09533-0.3337,0.14299-0.50711,0.14299
						c-0.25128,0-0.50267-0.09533-0.68898-0.28601l-2.6479-2.64351c-0.28598-0.29037-0.35528-0.7194-0.19499-1.09209
						c0.27731-0.62838,0.42035-1.30009,0.42035-1.99349c0-0.13,0-0.26435-0.01301-0.39435l-0.01302-0.10834
						c-0.14294-1.28708-1.08775-2.34018-2.35313-2.62185c-0.45939-0.104-0.78875-0.51137-0.78875-0.98375v-3.62292
						c0-0.4637,0.32069-0.87107,0.77574-0.97941l0.08231-0.01733c1.02279-0.23834,1.82021-0.98808,2.22755-1.95448
						c0-0.01301,0.01302-0.026,0.01302-0.03468c0.403-0.96639,0.35539-2.06282-0.19076-2.95555
						c-0.11257-0.18201-0.16896-0.38568-0.16896-0.58503c0-0.29035,0.11268-0.57204,0.32502-0.78873l2.40085-2.40083
						c0.38998-0.39004,1.00109-0.45936,1.46906-0.16902l0.05206,0.03034c0.85805,0.53303,1.93279,0.58503,2.83855,0.13434
						l0.73236-0.36404c0.78008-0.39001,1.33913-1.1744,1.32178-2.04547c-0.00867-0.39004,0.29032-0.6934,0.66295-0.6934h4.17769
						c0.299,0,0.55906,0.19936,0.63703,0.4897l0.05206,0.19936c0.23837,1.01406,0.91867,1.85912,1.83746,2.32282
						c0.46362,0.22536,0.97507,0.34669,1.47339,0.34669c0.60667,0,1.22646-0.16899,1.76382-0.51137
						c0.15595-0.09533,0.3337-0.14299,0.51134-0.14299c0.23837,0,0.48965,0.09533,0.6674,0.27299l2.63055,2.62187
						c0.31201,0.30767,0.37263,0.79737,0.14294,1.17874l-0.08231,0.13c-0.53303,0.84073-0.62402,1.88949-0.23837,2.80822
						l0.10834,0.25133c0.38142,0.94042,1.20043,1.62945,2.17984,1.85915h0.01301
						C60.77902,31.46167,61.13007,31.90371,61.13007,32.41074z"></path><g><circle cx="46.5" cy="34.153" r="8.975" fill="#D1D1D1"></circle></g><g><path d="M91.5 84.37055h-8.77441c-.27637 0-.5.22363-.5.5s.22363.5.5.5H91.5c.27637 0 .5-.22363.5-.5S91.77637 84.37055 91.5 84.37055zM10.27441 84.37055H1.5c-.27637 0-.5.22363-.5.5s.22363.5.5.5h8.77441c.27637 0 .5-.22363.5-.5S10.55078 84.37055 10.27441 84.37055zM80.29688 81.18842L77.1709 63.81391c-.41992-2.31201-1.97168-4.21484-4.15332-5.08936l-15.03979-6.02582L55.5625 49.7768c-.1582-.19092-.43164-.23633-.64453-.10938L46.5 54.75373l-8.41895-5.0863c-.21387-.12842-.48535-.08203-.64453.10938l-2.41528 2.922-15.03882 6.02625c-2.18164.87402-3.7334 2.77637-4.15332 5.08984l-3.125 17.3711c-.19629 1.06152.08789 2.14746.78027 2.97949.07178.08618.16016.15173.23853.23022-.21411.05652-.37524.24274-.37524.47485 0 .27637.22363.5.5.5-.44428.0045 5.80371.1012 65.30469 0 .27637 0 .5-.22363.5-.5 0-.23218-.16113-.41852-.37549-.47491.07813-.07813.16626-.14337.23779-.22919C80.20703 83.33442 80.49219 82.24799 80.29688 81.18842zM55.06641 50.74604l1.99609 2.41553-5.06348 8.17432L47.25 55.46918 55.06641 50.74604zM48.6582 58.81098l-1.11035 1.14746c-.10352.10693-.1543.25439-.1377.40234l2.64575 24.00977h-7.11182l2.64575-24.00977c.0166-.14795-.03418-.29541-.1377-.40234l-1.11035-1.14746L46.5 56.13959 48.6582 58.81098zM37.93262 50.74604L45.75 55.46918 41 61.33588l-5.06348-8.17432L37.93262 50.74604zM13.6875 81.36518l3.12598-17.37256c.35742-1.97217 1.68066-3.59424 3.54004-4.33936l14.76367-5.91577 5.40332 8.72339c.08496.1377.23145.22559.39355.23584.01074.00049.02051.00098.03125.00098.15039 0 .29297-.06787.38867-.18555l2.36792-2.92438.86841.89703L41.9375 84.37055H15.57593c-.5105-.14209-.97534-.42633-1.323-.84473C13.75098 82.9228 13.54492 82.13618 13.6875 81.36518zM78.74609 83.52631c-.34839.41803-.81226.70215-1.32227.84424H51.06201l-2.63232-23.88575.86816-.89673 2.36719 2.92407c.0957.11768.23828.18555.38867.18555.01074 0 .02051-.00049.03125-.00098.16211-.01025.30859-.09814.39355-.23584l5.40332-8.72339 14.76367 5.91528c1.86035.74609 3.18359 2.36816 3.54102 4.33887l3.12598 17.37598C79.45508 82.13618 79.24805 82.92329 78.74609 83.52631zM39.06641 22.03168c-.65137-.40381-1.54492-.2998-2.08594.24023l-2.40332 2.4043c-.30273.30762-.46875.71191-.46875 1.13867 0 .29688.08398.58984.24219.8457.92268 1.51021.10313 3.77091-1.82129 4.21484-.68262.1626-1.16016.76563-1.16016 1.46582v3.62305c0 .70947.48438 1.31445 1.18066 1.47217 1.96569.43732 2.41275 2.60675 1.6084 4.43213-.24316.56494-.12695 1.20898.2998 1.64355l2.64453 2.63916c.46289.47217 1.22949.57764 1.82129.21631 1.782-1.12463 3.90636.0474 4.36621 2.0542.11133.50977.55566.86572 1.08203.86572h4.25977c.51758 0 .96191-.35059 1.08008-.85352l.12598-.53613c.45578-1.91477 2.98798-2.32187 4.50684-1.37061.41113.26074.97852.19824 1.32227-.14551l3.06445-3.05176c.34766-.34717.41309-.90332.1543-1.32422l-.20996-.33594c-.93651-1.49275-.14765-3.79139 1.70703-4.2168.72266-.16357 1.24707-.81885 1.24707-1.55811v-3.48438c0-.74219-.50586-1.38086-1.22949-1.55225l-.06152-.01221c-1.73125-.43961-2.65759-2.63378-1.69336-4.15381l.08789-.13867c.35059-.58252.25879-1.31982-.21973-1.79053l-2.62891-2.62109c-.45703-.45752-1.22949-.54834-1.80078-.19873-1.62726 1.03671-3.85648.1211-4.32227-1.86182l-.05371-.20361c-.13574-.50635-.59668-.85986-1.11914-.85986h-4.17773c-.31543 0-.61035.12354-.8291.34766-.22266.22803-.34082.53223-.33398.85596.0274 1.38276-1.53763 1.7761-1.77734 1.95166C40.7334 22.54047 39.85938 22.51947 39.06641 22.03168zM44.24805 20.20014c-.00195-.06885.02539-.11133.04883-.13525.02148-.02148.05762-.04688.11426-.04688h4.17773c.07324 0 .13477.04834.15234.11523l.0498.18799c.6178 2.63684 3.62904 3.86807 5.82324 2.47021.16797-.10352.42383-.08154.56445.05811l2.63184 2.62402c.14746.14502.1748.38281.07129.55615l-.08105.12842c-1.32726 2.08985-.10186 5.09734 2.35742 5.67334l.04492.0083c.25293.0752.42676.30518.42676.5708v3.48438c0 .27637-.19629.52148-.46973.58301-2.52008.58054-3.64045 3.64022-2.33203 5.72217l.19727.42139-3.14746 3.05957c-2.07859-1.30283-5.38498-.66313-6.0127 1.98682l-.12598.53711c-.01172.04932-.05469.08252-.10742.08252-4.36383-.0323-4.3298.07582-4.36621-.0835-.60651-2.65196-3.45355-4.21552-5.86914-2.68604-.18457.11182-.43262.0835-.58301-.07031l-2.64551-2.63965c-.13965-.14258-.1748-.35107-.09375-.54004 1.1838-2.67389.06121-5.28069-2.30566-5.80762-.23535-.05322-.39941-.25732-.39941-.49609v-3.62305c0-.23145.16504-.43896.47168-.50977 2.44118-.56822 3.65889-3.57414 2.36133-5.69434-.06152-.1001-.09375-.21143-.09375-.32227 0-.16309.06445-.31885.17871-.43506l2.40039-2.40088c.21973-.2207.50781-.30713.9043-.06738C40.72876 24.24029 44.29539 22.56952 44.24805 20.20014zM24.02148 27.91205l-.99805-.05566c-.01953.34033-.0293.68311-.0293 1.02783h1C23.99414 28.55805 24.00391 28.23383 24.02148 27.91205zM24.32715 25.49457l-.98047-.19629c-.11133.55518-.19727 1.12695-.25586 1.70068l.99414.10254C24.14063 26.55902 24.22266 26.0185 24.32715 25.49457zM24.9707 23.14447l-.94336-.33301c-.18848.53369-.35449 1.08838-.49414 1.64746l.9707.24219C24.63574 24.17231 24.79297 23.64838 24.9707 23.14447zM25.6499 21.49298l.00635.00305c2.68628-5.68951 8.32642-9.4682 14.56396-9.85644l-2.45557 3.14404.78711.61523 3.42871-4.3877L37.5918 7.58344l-.61523.78809 2.92383 2.28461c-6.49512.4975-12.34131 4.47095-15.14697 10.41028l-.00732-.00348c-.14648.30957-.28418.62256-.41309.94092l.92578.37695C25.38159 22.08045 25.51123 21.78455 25.6499 21.49298zM69.00488 28.88422h1c0-.34473-.00879-.6875-.02832-1.02783l-.99805.05566C68.99609 28.23383 69.00488 28.55805 69.00488 28.88422zM68.91406 27.10151l.99414-.10254c-.05859-.57373-.14453-1.14551-.25586-1.70068l-.98047.19629C68.77637 26.0185 68.8584 26.55902 68.91406 27.10151zM68.49512 24.70111l.9707-.24219c-.13965-.55908-.30566-1.11377-.49414-1.64746l-.94336.33301C68.20605 23.64838 68.36328 24.17231 68.49512 24.70111zM55.23535 14.78315l-2.45605-3.14355c6.23682.38806 11.8772 4.16681 14.56445 9.85644l.00562-.00269c.13843.29144.26807.58728.39087.88745l.92578-.37695c-.12891-.31836-.2666-.63135-.41309-.94092l-.00659.00311c-2.80688-5.93957-8.65332-9.91302-15.14819-10.41003l2.92432-2.28448-.61523-.78809-4.38867 3.42822 3.42969 4.3877L55.23535 14.78315z"></path></g><g><path fill="#00CE4A" d="M77.71094,9.72748h-1.75v-1.75c0-0.13818-0.1123-0.25-0.25-0.25s-0.25,0.11182-0.25,0.25v1.75h-1.75
				c-0.1377,0-0.25,0.11182-0.25,0.25s0.1123,0.25,0.25,0.25h1.75v1.75c0,0.13818,0.1123,0.25,0.25,0.25s0.25-0.11182,0.25-0.25
				v-1.75h1.75c0.1377,0,0.25-0.11182,0.25-0.25S77.84863,9.72748,77.71094,9.72748z"></path></g><g><path fill="#FF2E57" d="M25.21875,45.01508h-1.75v-1.75c0-0.13818-0.1123-0.25-0.25-0.25s-0.25,0.11182-0.25,0.25v1.75h-1.75
				c-0.1377,0-0.25,0.11182-0.25,0.25s0.1123,0.25,0.25,0.25h1.75v1.75c0,0.13818,0.1123,0.25,0.25,0.25s0.25-0.11182,0.25-0.25
				v-1.75h1.75c0.1377,0,0.25-0.11182,0.25-0.25S25.35645,45.01508,25.21875,45.01508z"></path></g><g><path fill="#15BDFF" d="M74.71094,35.90277h-1.75v-1.75c0-0.13818-0.1123-0.25-0.25-0.25s-0.25,0.11182-0.25,0.25v1.75h-1.75
				c-0.1377,0-0.25,0.11182-0.25,0.25s0.1123,0.25,0.25,0.25h1.75v1.75c0,0.13818,0.1123,0.25,0.25,0.25s0.25-0.11182,0.25-0.25
				v-1.75h1.75c0.1377,0,0.25-0.11182,0.25-0.25S74.84863,35.90277,74.71094,35.90277z"></path></g><g><path fill="#2E1C66" d="M19.21875,19.72748h-1.75v-1.75c0-0.13818-0.1123-0.25-0.25-0.25s-0.25,0.11182-0.25,0.25v1.75h-1.75
				c-0.1377,0-0.25,0.11182-0.25,0.25s0.1123,0.25,0.25,0.25h1.75v1.75c0,0.13818,0.1123,0.25,0.25,0.25s0.25-0.11182,0.25-0.25
				v-1.75h1.75c0.1377,0,0.25-0.11182,0.25-0.25S19.35645,19.72748,19.21875,19.72748z"></path></g></svg>