<?xml version="1.0" encoding="iso-8859-1"?>
<!-- Uploaded to: SVG Repo, www.svgrepo.com, Generator: SVG Repo Mixer Tools -->
<svg version="1.1" id="Layer_1" xmlns="http://www.w3.org/2000/svg" xmlns:xlink="http://www.w3.org/1999/xlink" 
	 viewBox="0 0 480.003 480.003" xml:space="preserve">
<rect x="24" y="144.001" style="fill:#FEDDDD;" width="432" height="296"/>
<rect x="8" y="8.001" style="fill:#F95754;" width="464" height="32"/>
<rect x="8" y="440.001" style="fill:#BB413F;" width="464" height="32"/>
<path style="fill:#132C47;" d="M464,433.473V144.001c0-4.424-3.584-8-8-8H24c-4.416,0-8,3.576-8,8v289.472
	c-9.288,3.312-16,12.112-16,22.528v16c0,4.424,3.584,8,8,8h464c4.416,0,8-3.576,8-8v-16C480,445.585,473.288,436.785,464,433.473z
	 M32,152.001h416v280H32V152.001z M464,464.001H16v-8c0-4.416,3.592-8,8-8h432c4.408,0,8,3.584,8,8V464.001z"/>
<rect x="8" y="112.001" style="fill:#F95754;" width="464" height="32"/>
<polygon style="fill:#BB413F;" points="456,144.001 472,192.001 8,192.001 24,144.001 "/>
<path style="fill:#132C47;" d="M472,200.001H8c-2.568,0-4.984-1.232-6.488-3.32s-1.912-4.776-1.104-7.208l16-48
	c1.096-3.272,4.144-5.472,7.592-5.472h432c3.448,0,6.496,2.2,7.592,5.472l16,48c0.816,2.44,0.4,5.128-1.104,7.208
	S474.568,200.001,472,200.001z M19.096,184.001h441.808l-10.664-32H29.768L19.096,184.001z"/>
<rect x="8" y="40.001" style="fill:#FA7976;" width="464" height="72"/>
<path style="fill:#132C47;" d="M456,0.001H24c-13.232,0-24,10.768-24,24v16v72v16c0,13.232,10.768,24,24,24h432
	c13.232,0,24-10.768,24-24v-16v-72v-16C480,10.769,469.232,0.001,456,0.001z M16,48.001h448v56H16V48.001z M16,24.001
	c0-4.416,3.592-8,8-8h432c4.408,0,8,3.584,8,8v8H16V24.001z M464,128.001c0,4.416-3.592,8-8,8H24c-4.408,0-8-3.584-8-8v-8h448
	V128.001z"/>
<g>
	<rect x="200" y="224.001" style="fill:#FFF8F8;" width="80" height="216"/>
	<rect x="56" y="224.001" style="fill:#FFF8F8;" width="112" height="144"/>
</g>
<g>
	<rect x="56" y="368.001" style="fill:#F95754;" width="112" height="32"/>
	<path style="fill:#F95754;" d="M136,296.001H88c0-13.28,10.72-24,24-24S136,282.721,136,296.001z"/>
</g>
<rect x="312" y="224.001" style="fill:#FFF8F8;" width="112" height="144"/>
<g>
	<rect x="312" y="368.001" style="fill:#F95754;" width="112" height="32"/>
	<path style="fill:#F95754;" d="M392,296.001h-48c0-13.28,10.72-24,24-24S392,282.721,392,296.001z"/>
</g>
<path style="fill:#132C47;" d="M424,216.001H312c-4.416,0-8,3.576-8,8v176c0,4.424,3.584,8,8,8h112c4.416,0,8-3.576,8-8v-176
	C432,219.577,428.416,216.001,424,216.001z M368,280.001c5.912,0,11.08,3.216,13.848,8h-27.704
	C356.92,283.217,362.088,280.001,368,280.001z M320,232.001h40v33.136c-13.76,3.576-24,15.992-24,30.864c0,4.424,3.584,8,8,8h48
	c4.416,0,8-3.576,8-8c0-14.872-10.24-27.288-24-30.864v-33.136h40v128h-96V232.001z M416,392.001h-96v-16h96V392.001z"/>
<rect x="200" y="344.001" style="fill:#F95754;" width="80" height="32"/>
<g>
	<path style="fill:#132C47;" d="M280,216.001h-80c-4.416,0-8,3.576-8,8v216c0,4.424,3.584,8,8,8h80c4.416,0,8-3.576,8-8v-216
		C288,219.577,284.416,216.001,280,216.001z M272,232.001v104h-64v-104H272z M272,368.001h-64v-16h64V368.001z M208,432.001v-48h64
		v48H208z"/>
	<path style="fill:#132C47;" d="M168,216.001H56c-4.416,0-8,3.576-8,8v176c0,4.424,3.584,8,8,8h112c4.416,0,8-3.576,8-8v-176
		C176,219.577,172.416,216.001,168,216.001z M112,280.001c5.912,0,11.08,3.216,13.848,8H98.144
		C100.92,283.217,106.088,280.001,112,280.001z M160,392.001H64v-16h96V392.001z M160,360.001H64v-128h40v33.136
		c-13.76,3.576-24,15.992-24,30.864c0,4.424,3.584,8,8,8h48c4.416,0,8-3.576,8-8c0-14.872-10.24-27.288-24-30.864v-33.136h40
		V360.001z"/>
</g>
<circle style="fill:#F95754;" cx="240" cy="96.001" r="88"/>
<path style="fill:#FFF8F8;" d="M272,72.001c13.28,0,24,10.72,24,24s-10.72,24-24,24v32h-64v-32c-13.28,0-24-10.72-24-24
	s10.72-24,24-24c0-17.68,14.32-32,32-32S272,54.321,272,72.001z"/>
<g>
	<path style="fill:#132C47;" d="M240,0.001c-52.936,0-96,43.064-96,96s43.064,96,96,96s96-43.064,96-96S292.936,0.001,240,0.001z
		 M240,176.001c-44.112,0-80-35.888-80-80s35.888-80,80-80s80,35.888,80,80S284.112,176.001,240,176.001z"/>
	<path style="fill:#132C47;" d="M279.36,64.849c-3.376-18.656-19.744-32.848-39.36-32.848s-35.984,14.192-39.36,32.848
		C186.528,68.185,176,80.889,176,96.001c0,14.88,10.216,27.432,24,30.984v25.016c0,4.424,3.584,8,8,8h64c4.416,0,8-3.576,8-8
		v-25.016c13.784-3.552,24-16.104,24-30.984C304,80.889,293.472,68.185,279.36,64.849z M272,112.001c-4.416,0-8,3.576-8,8v24h-48
		v-24c0-4.424-3.584-8-8-8c-8.824,0-16-7.176-16-16c0-8.256,6.312-15,14.36-15.832c10.344,5.304,9.992,12.864,9.752,14.456
		c-0.752,4.288,2.08,8.408,6.376,9.232c0.512,0.096,1.016,0.144,1.52,0.144c3.76,0,7.12-2.664,7.848-6.496
		c1.312-6.832-0.672-20.944-15.4-29.992C218.56,56.425,228.304,48.001,240,48.001c13.232,0,24,10.768,24,24c0,4.424,3.584,8,8,8
		c8.824,0,16,7.176,16,16S280.824,112.001,272,112.001z"/>
</g>
</svg>